<svg width="214" height="214" viewBox="0 0 214 214" fill="none" xmlns="http://www.w3.org/2000/svg">
<rect width="214" height="214" fill="white"/>
<rect width="203.3" height="203.3" transform="translate(6.42004 6.42001)" fill="white"/>
<rect width="203.3" height="203.3" transform="translate(6.42004 6.42001)" fill="white"/>
<path d="M16.585 77.575H9.80835V84.3517H16.585V77.575Z" fill="black"/>
<path d="M16.585 91.1284H9.80835V97.905H16.585V91.1284Z" fill="black"/>
<path d="M16.585 97.905H9.80835V104.682H16.585V97.905Z" fill="black"/>
<path d="M16.585 104.682H9.80835V111.458H16.585V104.682Z" fill="black"/>
<path d="M16.585 111.458H9.80835V118.235H16.585V111.458Z" fill="black"/>
<path d="M16.585 125.012H9.80835V131.788H16.585V125.012Z" fill="black"/>
<path d="M16.585 131.788H9.80835V138.565H16.585V131.788Z" fill="black"/>
<path d="M16.585 145.342H9.80835V152.118H16.585V145.342Z" fill="black"/>
<path d="M23.3616 64.0217H16.585V70.7983H23.3616V64.0217Z" fill="black"/>
<path d="M23.3616 84.3517H16.585V91.1284H23.3616V84.3517Z" fill="black"/>
<path d="M23.3616 91.1284H16.585V97.905H23.3616V91.1284Z" fill="black"/>
<path d="M23.3616 104.682H16.585V111.458H23.3616V104.682Z" fill="black"/>
<path d="M23.3616 118.235H16.585V125.012H23.3616V118.235Z" fill="black"/>
<path d="M23.3616 125.012H16.585V131.788H23.3616V125.012Z" fill="black"/>
<path d="M23.3616 131.788H16.585V138.565H23.3616V131.788Z" fill="black"/>
<path d="M23.3616 138.565H16.585V145.342H23.3616V138.565Z" fill="black"/>
<path d="M23.3616 145.342H16.585V152.118H23.3616V145.342Z" fill="black"/>
<path d="M30.1384 64.0217H23.3617V70.7983H30.1384V64.0217Z" fill="black"/>
<path d="M30.1384 77.575H23.3617V84.3517H30.1384V77.575Z" fill="black"/>
<path d="M30.1384 91.1284H23.3617V97.905H30.1384V91.1284Z" fill="black"/>
<path d="M30.1384 97.905H23.3617V104.682H30.1384V97.905Z" fill="black"/>
<path d="M30.1384 111.458H23.3617V118.235H30.1384V111.458Z" fill="black"/>
<path d="M30.1384 118.235H23.3617V125.012H30.1384V118.235Z" fill="black"/>
<path d="M30.1384 131.788H23.3617V138.565H30.1384V131.788Z" fill="black"/>
<path d="M30.1384 145.342H23.3617V152.118H30.1384V145.342Z" fill="black"/>
<path d="M36.915 77.575H30.1383V84.3517H36.915V77.575Z" fill="black"/>
<path d="M36.915 84.3517H30.1383V91.1284H36.915V84.3517Z" fill="black"/>
<path d="M36.915 91.1284H30.1383V97.905H36.915V91.1284Z" fill="black"/>
<path d="M36.915 118.235H30.1383V125.012H36.915V118.235Z" fill="black"/>
<path d="M36.915 125.012H30.1383V131.788H36.915V125.012Z" fill="black"/>
<path d="M36.915 138.565H30.1383V145.342H36.915V138.565Z" fill="black"/>
<path d="M43.6917 70.7983H36.915V77.575H43.6917V70.7983Z" fill="black"/>
<path d="M43.6917 77.575H36.915V84.3517H43.6917V77.575Z" fill="black"/>
<path d="M43.6917 84.3517H36.915V91.1284H43.6917V84.3517Z" fill="black"/>
<path d="M43.6917 91.1284H36.915V97.905H43.6917V91.1284Z" fill="black"/>
<path d="M43.6917 118.235H36.915V125.012H43.6917V118.235Z" fill="black"/>
<path d="M43.6917 125.012H36.915V131.788H43.6917V125.012Z" fill="black"/>
<path d="M43.6917 131.788H36.915V138.565H43.6917V131.788Z" fill="black"/>
<path d="M43.6917 138.565H36.915V145.342H43.6917V138.565Z" fill="black"/>
<path d="M43.6917 145.342H36.915V152.118H43.6917V145.342Z" fill="black"/>
<path d="M50.4683 77.575H43.6917V84.3517H50.4683V77.575Z" fill="black"/>
<path d="M50.4683 97.905H43.6917V104.682H50.4683V97.905Z" fill="black"/>
<path d="M50.4683 138.565H43.6917V145.342H50.4683V138.565Z" fill="black"/>
<path d="M50.4683 145.342H43.6917V152.118H50.4683V145.342Z" fill="black"/>
<path d="M57.2451 64.0217H50.4684V70.7983H57.2451V64.0217Z" fill="black"/>
<path d="M57.2451 77.575H50.4684V84.3517H57.2451V77.575Z" fill="black"/>
<path d="M57.2451 91.1284H50.4684V97.905H57.2451V91.1284Z" fill="black"/>
<path d="M57.2451 104.682H50.4684V111.458H57.2451V104.682Z" fill="black"/>
<path d="M57.2451 118.235H50.4684V125.012H57.2451V118.235Z" fill="black"/>
<path d="M57.2451 131.788H50.4684V138.565H57.2451V131.788Z" fill="black"/>
<path d="M57.2451 145.342H50.4684V152.118H57.2451V145.342Z" fill="black"/>
<path d="M64.0217 70.7983H57.245V77.575H64.0217V70.7983Z" fill="black"/>
<path d="M64.0217 91.1284H57.245V97.905H64.0217V91.1284Z" fill="black"/>
<path d="M64.0217 104.682H57.245V111.458H64.0217V104.682Z" fill="black"/>
<path d="M64.0217 111.458H57.245V118.235H64.0217V111.458Z" fill="black"/>
<path d="M64.0217 118.235H57.245V125.012H64.0217V118.235Z" fill="black"/>
<path d="M64.0217 125.012H57.245V131.788H64.0217V125.012Z" fill="black"/>
<path d="M64.0217 131.788H57.245V138.565H64.0217V131.788Z" fill="black"/>
<path d="M70.7984 16.585H64.0217V23.3617H70.7984V16.585Z" fill="black"/>
<path d="M70.7984 23.3617H64.0217V30.1384H70.7984V23.3617Z" fill="black"/>
<path d="M70.7984 30.1383H64.0217V36.915H70.7984V30.1383Z" fill="black"/>
<path d="M70.7984 43.6917H64.0217V50.4683H70.7984V43.6917Z" fill="black"/>
<path d="M70.7984 50.4684H64.0217V57.245H70.7984V50.4684Z" fill="black"/>
<path d="M70.7984 70.7983H64.0217V77.575H70.7984V70.7983Z" fill="black"/>
<path d="M70.7984 77.575H64.0217V84.3517H70.7984V77.575Z" fill="black"/>
<path d="M70.7984 91.1284H64.0217V97.905H70.7984V91.1284Z" fill="black"/>
<path d="M70.7984 97.905H64.0217V104.682H70.7984V97.905Z" fill="black"/>
<path d="M70.7984 118.235H64.0217V125.012H70.7984V118.235Z" fill="black"/>
<path d="M70.7984 138.565H64.0217V145.342H70.7984V138.565Z" fill="black"/>
<path d="M70.7984 186.002H64.0217V192.778H70.7984V186.002Z" fill="black"/>
<path d="M70.7984 192.778H64.0217V199.555H70.7984V192.778Z" fill="black"/>
<path d="M77.575 16.585H70.7983V23.3617H77.575V16.585Z" fill="black"/>
<path d="M77.575 23.3617H70.7983V30.1384H77.575V23.3617Z" fill="black"/>
<path d="M77.575 30.1383H70.7983V36.915H77.575V30.1383Z" fill="black"/>
<path d="M77.575 36.915H70.7983V43.6917H77.575V36.915Z" fill="black"/>
<path d="M77.575 77.575H70.7983V84.3517H77.575V77.575Z" fill="black"/>
<path d="M77.575 84.3517H70.7983V91.1284H77.575V84.3517Z" fill="black"/>
<path d="M77.575 111.458H70.7983V118.235H77.575V111.458Z" fill="black"/>
<path d="M77.575 118.235H70.7983V125.012H77.575V118.235Z" fill="black"/>
<path d="M77.575 158.895H70.7983V165.672H77.575V158.895Z" fill="black"/>
<path d="M77.575 165.672H70.7983V172.448H77.575V165.672Z" fill="black"/>
<path d="M77.575 172.448H70.7983V179.225H77.575V172.448Z" fill="black"/>
<path d="M77.575 179.225H70.7983V186.002H77.575V179.225Z" fill="black"/>
<path d="M77.575 186.002H70.7983V192.778H77.575V186.002Z" fill="black"/>
<path d="M77.575 199.555H70.7983V206.332H77.575V199.555Z" fill="black"/>
<path d="M84.3516 9.80835H77.575V16.585H84.3516V9.80835Z" fill="black"/>
<path d="M84.3516 16.585H77.575V23.3617H84.3516V16.585Z" fill="black"/>
<path d="M84.3516 30.1383H77.575V36.915H84.3516V30.1383Z" fill="black"/>
<path d="M84.3516 50.4684H77.575V57.245H84.3516V50.4684Z" fill="black"/>
<path d="M84.3516 77.575H77.575V84.3517H84.3516V77.575Z" fill="black"/>
<path d="M84.3516 97.905H77.575V104.682H84.3516V97.905Z" fill="black"/>
<path d="M84.3516 125.012H77.575V131.788H84.3516V125.012Z" fill="black"/>
<path d="M84.3516 145.342H77.575V152.118H84.3516V145.342Z" fill="black"/>
<path d="M84.3516 158.895H77.575V165.672H84.3516V158.895Z" fill="black"/>
<path d="M84.3516 172.448H77.575V179.225H84.3516V172.448Z" fill="black"/>
<path d="M84.3516 179.225H77.575V186.002H84.3516V179.225Z" fill="black"/>
<path d="M84.3516 192.778H77.575V199.555H84.3516V192.778Z" fill="black"/>
<path d="M91.1284 36.915H84.3517V43.6917H91.1284V36.915Z" fill="black"/>
<path d="M91.1284 84.3517H84.3517V91.1284H91.1284V84.3517Z" fill="black"/>
<path d="M91.1284 111.458H84.3517V118.235H91.1284V111.458Z" fill="black"/>
<path d="M91.1284 118.235H84.3517V125.012H91.1284V118.235Z" fill="black"/>
<path d="M91.1284 131.788H84.3517V138.565H91.1284V131.788Z" fill="black"/>
<path d="M91.1284 138.565H84.3517V145.342H91.1284V138.565Z" fill="black"/>
<path d="M91.1284 165.672H84.3517V172.448H91.1284V165.672Z" fill="black"/>
<path d="M91.1284 199.555H84.3517V206.332H91.1284V199.555Z" fill="black"/>
<path d="M97.905 16.585H91.1283V23.3617H97.905V16.585Z" fill="black"/>
<path d="M97.905 23.3617H91.1283V30.1384H97.905V23.3617Z" fill="black"/>
<path d="M97.905 30.1383H91.1283V36.915H97.905V30.1383Z" fill="black"/>
<path d="M97.905 36.915H91.1283V43.6917H97.905V36.915Z" fill="black"/>
<path d="M97.905 50.4684H91.1283V57.245H97.905V50.4684Z" fill="black"/>
<path d="M97.905 70.7983H91.1283V77.575H97.905V70.7983Z" fill="black"/>
<path d="M97.905 84.3517H91.1283V91.1284H97.905V84.3517Z" fill="black"/>
<path d="M97.905 118.235H91.1283V125.012H97.905V118.235Z" fill="black"/>
<path d="M97.905 125.012H91.1283V131.788H97.905V125.012Z" fill="black"/>
<path d="M97.905 138.565H91.1283V145.342H97.905V138.565Z" fill="black"/>
<path d="M97.905 152.118H91.1283V158.895H97.905V152.118Z" fill="black"/>
<path d="M97.905 165.672H91.1283V172.448H97.905V165.672Z" fill="black"/>
<path d="M97.905 192.778H91.1283V199.555H97.905V192.778Z" fill="black"/>
<path d="M97.905 199.555H91.1283V206.332H97.905V199.555Z" fill="black"/>
<path d="M104.682 64.0217H97.905V70.7983H104.682V64.0217Z" fill="black"/>
<path d="M104.682 84.3517H97.905V91.1284H104.682V84.3517Z" fill="black"/>
<path d="M104.682 91.1284H97.905V97.905H104.682V91.1284Z" fill="black"/>
<path d="M104.682 97.905H97.905V104.682H104.682V97.905Z" fill="black"/>
<path d="M104.682 118.235H97.905V125.012H104.682V118.235Z" fill="black"/>
<path d="M104.682 131.788H97.905V138.565H104.682V131.788Z" fill="black"/>
<path d="M104.682 138.565H97.905V145.342H104.682V138.565Z" fill="black"/>
<path d="M104.682 158.895H97.905V165.672H104.682V158.895Z" fill="black"/>
<path d="M104.682 165.672H97.905V172.448H104.682V165.672Z" fill="black"/>
<path d="M104.682 179.225H97.905V186.002H104.682V179.225Z" fill="black"/>
<path d="M104.682 186.002H97.905V192.778H104.682V186.002Z" fill="black"/>
<path d="M104.682 199.555H97.905V206.332H104.682V199.555Z" fill="black"/>
<path d="M111.458 23.3617H104.682V30.1384H111.458V23.3617Z" fill="black"/>
<path d="M111.458 30.1383H104.682V36.915H111.458V30.1383Z" fill="black"/>
<path d="M111.458 36.915H104.682V43.6917H111.458V36.915Z" fill="black"/>
<path d="M111.458 50.4684H104.682V57.245H111.458V50.4684Z" fill="black"/>
<path d="M111.458 64.0217H104.682V70.7983H111.458V64.0217Z" fill="black"/>
<path d="M111.458 77.575H104.682V84.3517H111.458V77.575Z" fill="black"/>
<path d="M111.458 84.3517H104.682V91.1284H111.458V84.3517Z" fill="black"/>
<path d="M111.458 104.682H104.682V111.458H111.458V104.682Z" fill="black"/>
<path d="M111.458 118.235H104.682V125.012H111.458V118.235Z" fill="black"/>
<path d="M111.458 125.012H104.682V131.788H111.458V125.012Z" fill="black"/>
<path d="M111.458 131.788H104.682V138.565H111.458V131.788Z" fill="black"/>
<path d="M111.458 138.565H104.682V145.342H111.458V138.565Z" fill="black"/>
<path d="M111.458 145.342H104.682V152.118H111.458V145.342Z" fill="black"/>
<path d="M111.458 158.895H104.682V165.672H111.458V158.895Z" fill="black"/>
<path d="M111.458 165.672H104.682V172.448H111.458V165.672Z" fill="black"/>
<path d="M111.458 172.448H104.682V179.225H111.458V172.448Z" fill="black"/>
<path d="M111.458 179.225H104.682V186.002H111.458V179.225Z" fill="black"/>
<path d="M111.458 199.555H104.682V206.332H111.458V199.555Z" fill="black"/>
<path d="M118.235 36.915H111.458V43.6917H118.235V36.915Z" fill="black"/>
<path d="M118.235 57.245H111.458V64.0217H118.235V57.245Z" fill="black"/>
<path d="M118.235 64.0217H111.458V70.7983H118.235V64.0217Z" fill="black"/>
<path d="M118.235 70.7983H111.458V77.575H118.235V70.7983Z" fill="black"/>
<path d="M118.235 77.575H111.458V84.3517H118.235V77.575Z" fill="black"/>
<path d="M118.235 91.1284H111.458V97.905H118.235V91.1284Z" fill="black"/>
<path d="M118.235 125.012H111.458V131.788H118.235V125.012Z" fill="black"/>
<path d="M118.235 131.788H111.458V138.565H118.235V131.788Z" fill="black"/>
<path d="M118.235 145.342H111.458V152.118H118.235V145.342Z" fill="black"/>
<path d="M118.235 158.895H111.458V165.672H118.235V158.895Z" fill="black"/>
<path d="M118.235 172.448H111.458V179.225H118.235V172.448Z" fill="black"/>
<path d="M118.235 179.225H111.458V186.002H118.235V179.225Z" fill="black"/>
<path d="M125.012 9.80835H118.235V16.585H125.012V9.80835Z" fill="black"/>
<path d="M125.012 23.3617H118.235V30.1384H125.012V23.3617Z" fill="black"/>
<path d="M125.012 30.1383H118.235V36.915H125.012V30.1383Z" fill="black"/>
<path d="M125.012 36.915H118.235V43.6917H125.012V36.915Z" fill="black"/>
<path d="M125.012 50.4684H118.235V57.245H125.012V50.4684Z" fill="black"/>
<path d="M125.012 57.245H118.235V64.0217H125.012V57.245Z" fill="black"/>
<path d="M125.012 64.0217H118.235V70.7983H125.012V64.0217Z" fill="black"/>
<path d="M125.012 77.575H118.235V84.3517H125.012V77.575Z" fill="black"/>
<path d="M125.012 97.905H118.235V104.682H125.012V97.905Z" fill="black"/>
<path d="M125.012 111.458H118.235V118.235H125.012V111.458Z" fill="black"/>
<path d="M125.012 118.235H118.235V125.012H125.012V118.235Z" fill="black"/>
<path d="M125.012 125.012H118.235V131.788H125.012V125.012Z" fill="black"/>
<path d="M125.012 131.788H118.235V138.565H125.012V131.788Z" fill="black"/>
<path d="M125.012 138.565H118.235V145.342H125.012V138.565Z" fill="black"/>
<path d="M125.012 152.118H118.235V158.895H125.012V152.118Z" fill="black"/>
<path d="M125.012 165.672H118.235V172.448H125.012V165.672Z" fill="black"/>
<path d="M125.012 179.225H118.235V186.002H125.012V179.225Z" fill="black"/>
<path d="M125.012 192.778H118.235V199.555H125.012V192.778Z" fill="black"/>
<path d="M125.012 199.555H118.235V206.332H125.012V199.555Z" fill="black"/>
<path d="M131.788 16.585H125.012V23.3617H131.788V16.585Z" fill="black"/>
<path d="M131.788 23.3617H125.012V30.1384H131.788V23.3617Z" fill="black"/>
<path d="M131.788 43.6917H125.012V50.4683H131.788V43.6917Z" fill="black"/>
<path d="M131.788 57.245H125.012V64.0217H131.788V57.245Z" fill="black"/>
<path d="M131.788 77.575H125.012V84.3517H131.788V77.575Z" fill="black"/>
<path d="M131.788 84.3517H125.012V91.1284H131.788V84.3517Z" fill="black"/>
<path d="M131.788 91.1284H125.012V97.905H131.788V91.1284Z" fill="black"/>
<path d="M131.788 97.905H125.012V104.682H131.788V97.905Z" fill="black"/>
<path d="M131.788 104.682H125.012V111.458H131.788V104.682Z" fill="black"/>
<path d="M131.788 118.235H125.012V125.012H131.788V118.235Z" fill="black"/>
<path d="M131.788 138.565H125.012V145.342H131.788V138.565Z" fill="black"/>
<path d="M131.788 145.342H125.012V152.118H131.788V145.342Z" fill="black"/>
<path d="M131.788 158.895H125.012V165.672H131.788V158.895Z" fill="black"/>
<path d="M131.788 165.672H125.012V172.448H131.788V165.672Z" fill="black"/>
<path d="M131.788 186.002H125.012V192.778H131.788V186.002Z" fill="black"/>
<path d="M138.565 9.80835H131.788V16.585H138.565V9.80835Z" fill="black"/>
<path d="M138.565 23.3617H131.788V30.1384H138.565V23.3617Z" fill="black"/>
<path d="M138.565 30.1383H131.788V36.915H138.565V30.1383Z" fill="black"/>
<path d="M138.565 50.4684H131.788V57.245H138.565V50.4684Z" fill="black"/>
<path d="M138.565 57.245H131.788V64.0217H138.565V57.245Z" fill="black"/>
<path d="M138.565 64.0217H131.788V70.7983H138.565V64.0217Z" fill="black"/>
<path d="M138.565 77.575H131.788V84.3517H138.565V77.575Z" fill="black"/>
<path d="M138.565 97.905H131.788V104.682H138.565V97.905Z" fill="black"/>
<path d="M138.565 111.458H131.788V118.235H138.565V111.458Z" fill="black"/>
<path d="M138.565 118.235H131.788V125.012H138.565V118.235Z" fill="black"/>
<path d="M138.565 125.012H131.788V131.788H138.565V125.012Z" fill="black"/>
<path d="M138.565 131.788H131.788V138.565H138.565V131.788Z" fill="black"/>
<path d="M138.565 158.895H131.788V165.672H138.565V158.895Z" fill="black"/>
<path d="M138.565 165.672H131.788V172.448H138.565V165.672Z" fill="black"/>
<path d="M138.565 172.448H131.788V179.225H138.565V172.448Z" fill="black"/>
<path d="M138.565 186.002H131.788V192.778H138.565V186.002Z" fill="black"/>
<path d="M145.342 23.3617H138.565V30.1384H145.342V23.3617Z" fill="black"/>
<path d="M145.342 57.245H138.565V64.0217H145.342V57.245Z" fill="black"/>
<path d="M145.342 70.7983H138.565V77.575H145.342V70.7983Z" fill="black"/>
<path d="M145.342 77.575H138.565V84.3517H145.342V77.575Z" fill="black"/>
<path d="M145.342 97.905H138.565V104.682H145.342V97.905Z" fill="black"/>
<path d="M145.342 104.682H138.565V111.458H145.342V104.682Z" fill="black"/>
<path d="M145.342 125.012H138.565V131.788H145.342V125.012Z" fill="black"/>
<path d="M145.342 138.565H138.565V145.342H145.342V138.565Z" fill="black"/>
<path d="M145.342 152.118H138.565V158.895H145.342V152.118Z" fill="black"/>
<path d="M145.342 158.895H138.565V165.672H145.342V158.895Z" fill="black"/>
<path d="M145.342 179.225H138.565V186.002H145.342V179.225Z" fill="black"/>
<path d="M145.342 186.002H138.565V192.778H145.342V186.002Z" fill="black"/>
<path d="M145.342 199.555H138.565V206.332H145.342V199.555Z" fill="black"/>
<path d="M152.118 16.585H145.342V23.3617H152.118V16.585Z" fill="black"/>
<path d="M152.118 23.3617H145.342V30.1384H152.118V23.3617Z" fill="black"/>
<path d="M152.118 43.6917H145.342V50.4683H152.118V43.6917Z" fill="black"/>
<path d="M152.118 50.4684H145.342V57.245H152.118V50.4684Z" fill="black"/>
<path d="M152.118 64.0217H145.342V70.7983H152.118V64.0217Z" fill="black"/>
<path d="M152.118 97.905H145.342V104.682H152.118V97.905Z" fill="black"/>
<path d="M152.118 104.682H145.342V111.458H152.118V104.682Z" fill="black"/>
<path d="M152.118 118.235H145.342V125.012H152.118V118.235Z" fill="black"/>
<path d="M152.118 125.012H145.342V131.788H152.118V125.012Z" fill="black"/>
<path d="M152.118 138.565H145.342V145.342H152.118V138.565Z" fill="black"/>
<path d="M152.118 145.342H145.342V152.118H152.118V145.342Z" fill="black"/>
<path d="M152.118 152.118H145.342V158.895H152.118V152.118Z" fill="black"/>
<path d="M152.118 158.895H145.342V165.672H152.118V158.895Z" fill="black"/>
<path d="M152.118 165.672H145.342V172.448H152.118V165.672Z" fill="black"/>
<path d="M152.118 172.448H145.342V179.225H152.118V172.448Z" fill="black"/>
<path d="M152.118 186.002H145.342V192.778H152.118V186.002Z" fill="black"/>
<path d="M158.895 64.0217H152.118V70.7983H158.895V64.0217Z" fill="black"/>
<path d="M158.895 70.7983H152.118V77.575H158.895V70.7983Z" fill="black"/>
<path d="M158.895 77.575H152.118V84.3517H158.895V77.575Z" fill="black"/>
<path d="M158.895 91.1284H152.118V97.905H158.895V91.1284Z" fill="black"/>
<path d="M158.895 118.235H152.118V125.012H158.895V118.235Z" fill="black"/>
<path d="M158.895 131.788H152.118V138.565H158.895V131.788Z" fill="black"/>
<path d="M158.895 145.342H152.118V152.118H158.895V145.342Z" fill="black"/>
<path d="M158.895 172.448H152.118V179.225H158.895V172.448Z" fill="black"/>
<path d="M158.895 179.225H152.118V186.002H158.895V179.225Z" fill="black"/>
<path d="M158.895 192.778H152.118V199.555H158.895V192.778Z" fill="black"/>
<path d="M158.895 199.555H152.118V206.332H158.895V199.555Z" fill="black"/>
<path d="M165.672 70.7983H158.895V77.575H165.672V70.7983Z" fill="black"/>
<path d="M165.672 84.3517H158.895V91.1284H165.672V84.3517Z" fill="black"/>
<path d="M165.672 91.1284H158.895V97.905H165.672V91.1284Z" fill="black"/>
<path d="M165.672 97.905H158.895V104.682H165.672V97.905Z" fill="black"/>
<path d="M165.672 104.682H158.895V111.458H165.672V104.682Z" fill="black"/>
<path d="M165.672 118.235H158.895V125.012H165.672V118.235Z" fill="black"/>
<path d="M165.672 125.012H158.895V131.788H165.672V125.012Z" fill="black"/>
<path d="M165.672 138.565H158.895V145.342H165.672V138.565Z" fill="black"/>
<path d="M165.672 145.342H158.895V152.118H165.672V145.342Z" fill="black"/>
<path d="M165.672 158.895H158.895V165.672H165.672V158.895Z" fill="black"/>
<path d="M165.672 172.448H158.895V179.225H165.672V172.448Z" fill="black"/>
<path d="M165.672 186.002H158.895V192.778H165.672V186.002Z" fill="black"/>
<path d="M165.672 192.778H158.895V199.555H165.672V192.778Z" fill="black"/>
<path d="M172.448 64.0217H165.672V70.7983H172.448V64.0217Z" fill="black"/>
<path d="M172.448 70.7983H165.672V77.575H172.448V70.7983Z" fill="black"/>
<path d="M172.448 77.575H165.672V84.3517H172.448V77.575Z" fill="black"/>
<path d="M172.448 91.1284H165.672V97.905H172.448V91.1284Z" fill="black"/>
<path d="M172.448 111.458H165.672V118.235H172.448V111.458Z" fill="black"/>
<path d="M172.448 118.235H165.672V125.012H172.448V118.235Z" fill="black"/>
<path d="M172.448 131.788H165.672V138.565H172.448V131.788Z" fill="black"/>
<path d="M172.448 145.342H165.672V152.118H172.448V145.342Z" fill="black"/>
<path d="M172.448 172.448H165.672V179.225H172.448V172.448Z" fill="black"/>
<path d="M172.448 192.778H165.672V199.555H172.448V192.778Z" fill="black"/>
<path d="M179.225 70.7983H172.448V77.575H179.225V70.7983Z" fill="black"/>
<path d="M179.225 77.575H172.448V84.3517H179.225V77.575Z" fill="black"/>
<path d="M179.225 84.3517H172.448V91.1284H179.225V84.3517Z" fill="black"/>
<path d="M179.225 97.905H172.448V104.682H179.225V97.905Z" fill="black"/>
<path d="M179.225 111.458H172.448V118.235H179.225V111.458Z" fill="black"/>
<path d="M179.225 131.788H172.448V138.565H179.225V131.788Z" fill="black"/>
<path d="M179.225 145.342H172.448V152.118H179.225V145.342Z" fill="black"/>
<path d="M179.225 152.118H172.448V158.895H179.225V152.118Z" fill="black"/>
<path d="M179.225 158.895H172.448V165.672H179.225V158.895Z" fill="black"/>
<path d="M179.225 165.672H172.448V172.448H179.225V165.672Z" fill="black"/>
<path d="M179.225 172.448H172.448V179.225H179.225V172.448Z" fill="black"/>
<path d="M179.225 179.225H172.448V186.002H179.225V179.225Z" fill="black"/>
<path d="M179.225 186.002H172.448V192.778H179.225V186.002Z" fill="black"/>
<path d="M179.225 199.555H172.448V206.332H179.225V199.555Z" fill="black"/>
<path d="M186.002 64.0217H179.225V70.7983H186.002V64.0217Z" fill="black"/>
<path d="M186.002 84.3517H179.225V91.1284H186.002V84.3517Z" fill="black"/>
<path d="M186.002 104.682H179.225V111.458H186.002V104.682Z" fill="black"/>
<path d="M186.002 118.235H179.225V125.012H186.002V118.235Z" fill="black"/>
<path d="M186.002 131.788H179.225V138.565H186.002V131.788Z" fill="black"/>
<path d="M186.002 138.565H179.225V145.342H186.002V138.565Z" fill="black"/>
<path d="M186.002 172.448H179.225V179.225H186.002V172.448Z" fill="black"/>
<path d="M186.002 192.778H179.225V199.555H186.002V192.778Z" fill="black"/>
<path d="M192.778 64.0217H186.002V70.7983H192.778V64.0217Z" fill="black"/>
<path d="M192.778 70.7983H186.002V77.575H192.778V70.7983Z" fill="black"/>
<path d="M192.778 77.575H186.002V84.3517H192.778V77.575Z" fill="black"/>
<path d="M192.778 91.1284H186.002V97.905H192.778V91.1284Z" fill="black"/>
<path d="M192.778 104.682H186.002V111.458H192.778V104.682Z" fill="black"/>
<path d="M192.778 111.458H186.002V118.235H192.778V111.458Z" fill="black"/>
<path d="M192.778 118.235H186.002V125.012H192.778V118.235Z" fill="black"/>
<path d="M192.778 125.012H186.002V131.788H192.778V125.012Z" fill="black"/>
<path d="M192.778 131.788H186.002V138.565H192.778V131.788Z" fill="black"/>
<path d="M192.778 145.342H186.002V152.118H192.778V145.342Z" fill="black"/>
<path d="M192.778 165.672H186.002V172.448H192.778V165.672Z" fill="black"/>
<path d="M192.778 179.225H186.002V186.002H192.778V179.225Z" fill="black"/>
<path d="M192.778 199.555H186.002V206.332H192.778V199.555Z" fill="black"/>
<path d="M199.555 64.0217H192.778V70.7983H199.555V64.0217Z" fill="black"/>
<path d="M199.555 70.7983H192.778V77.575H199.555V70.7983Z" fill="black"/>
<path d="M199.555 77.575H192.778V84.3517H199.555V77.575Z" fill="black"/>
<path d="M199.555 84.3517H192.778V91.1284H199.555V84.3517Z" fill="black"/>
<path d="M199.555 104.682H192.778V111.458H199.555V104.682Z" fill="black"/>
<path d="M199.555 118.235H192.778V125.012H199.555V118.235Z" fill="black"/>
<path d="M199.555 131.788H192.778V138.565H199.555V131.788Z" fill="black"/>
<path d="M199.555 172.448H192.778V179.225H199.555V172.448Z" fill="black"/>
<path d="M199.555 192.778H192.778V199.555H199.555V192.778Z" fill="black"/>
<path d="M206.332 70.7983H199.555V77.575H206.332V70.7983Z" fill="black"/>
<path d="M206.332 77.575H199.555V84.3517H206.332V77.575Z" fill="black"/>
<path d="M206.332 84.3517H199.555V91.1284H206.332V84.3517Z" fill="black"/>
<path d="M206.332 91.1284H199.555V97.905H206.332V91.1284Z" fill="black"/>
<path d="M206.332 111.458H199.555V118.235H206.332V111.458Z" fill="black"/>
<path d="M206.332 131.788H199.555V138.565H206.332V131.788Z" fill="black"/>
<path d="M206.332 138.565H199.555V145.342H206.332V138.565Z" fill="black"/>
<path d="M206.332 145.342H199.555V152.118H206.332V145.342Z" fill="black"/>
<path d="M206.332 152.118H199.555V158.895H206.332V152.118Z" fill="black"/>
<path d="M206.332 158.895H199.555V165.672H206.332V158.895Z" fill="black"/>
<path d="M206.332 165.672H199.555V172.448H206.332V165.672Z" fill="black"/>
<path d="M206.332 179.225H199.555V186.002H206.332V179.225Z" fill="black"/>
<path d="M206.332 192.778H199.555V199.555H206.332V192.778Z" fill="black"/>
<path d="M16.585 9.80835H9.80835V16.585H16.585V9.80835Z" fill="black"/>
<path d="M16.585 16.585H9.80835V23.3617H16.585V16.585Z" fill="black"/>
<path d="M16.585 23.3617H9.80835V30.1384H16.585V23.3617Z" fill="black"/>
<path d="M16.585 30.1383H9.80835V36.915H16.585V30.1383Z" fill="black"/>
<path d="M16.585 36.915H9.80835V43.6917H16.585V36.915Z" fill="black"/>
<path d="M16.585 43.6917H9.80835V50.4683H16.585V43.6917Z" fill="black"/>
<path d="M16.585 50.4684H9.80835V57.245H16.585V50.4684Z" fill="black"/>
<path d="M23.3616 9.80835H16.585V16.585H23.3616V9.80835Z" fill="black"/>
<path d="M23.3616 50.4684H16.585V57.245H23.3616V50.4684Z" fill="black"/>
<path d="M30.1384 9.80835H23.3617V16.585H30.1384V9.80835Z" fill="black"/>
<path d="M30.1384 50.4684H23.3617V57.245H30.1384V50.4684Z" fill="black"/>
<path d="M36.915 9.80835H30.1383V16.585H36.915V9.80835Z" fill="black"/>
<path d="M36.915 50.4684H30.1383V57.245H36.915V50.4684Z" fill="black"/>
<path d="M43.6917 9.80835H36.915V16.585H43.6917V9.80835Z" fill="black"/>
<path d="M43.6917 50.4684H36.915V57.245H43.6917V50.4684Z" fill="black"/>
<path d="M50.4683 9.80835H43.6917V16.585H50.4683V9.80835Z" fill="black"/>
<path d="M50.4683 50.4684H43.6917V57.245H50.4683V50.4684Z" fill="black"/>
<path d="M57.2451 9.80835H50.4684V16.585H57.2451V9.80835Z" fill="black"/>
<path d="M57.2451 16.585H50.4684V23.3617H57.2451V16.585Z" fill="black"/>
<path d="M57.2451 23.3617H50.4684V30.1384H57.2451V23.3617Z" fill="black"/>
<path d="M57.2451 30.1383H50.4684V36.915H57.2451V30.1383Z" fill="black"/>
<path d="M57.2451 36.915H50.4684V43.6917H57.2451V36.915Z" fill="black"/>
<path d="M57.2451 43.6917H50.4684V50.4683H57.2451V43.6917Z" fill="black"/>
<path d="M57.2451 50.4684H50.4684V57.245H57.2451V50.4684Z" fill="black"/>
<path d="M30.1384 23.3617H23.3617V30.1384H30.1384V23.3617Z" fill="black"/>
<path d="M30.1384 30.1384H23.3617V36.915H30.1384V30.1384Z" fill="black"/>
<path d="M30.1384 36.915H23.3617V43.6917H30.1384V36.915Z" fill="black"/>
<path d="M36.915 23.3617H30.1383V30.1384H36.915V23.3617Z" fill="black"/>
<path d="M36.915 30.1384H30.1383V36.915H36.915V30.1384Z" fill="black"/>
<path d="M36.915 36.915H30.1383V43.6917H36.915V36.915Z" fill="black"/>
<path d="M43.6917 23.3617H36.915V30.1384H43.6917V23.3617Z" fill="black"/>
<path d="M43.6917 30.1384H36.915V36.915H43.6917V30.1384Z" fill="black"/>
<path d="M43.6917 36.915H36.915V43.6917H43.6917V36.915Z" fill="black"/>
<path d="M165.672 9.80835H158.895V16.585H165.672V9.80835Z" fill="black"/>
<path d="M165.672 16.585H158.895V23.3617H165.672V16.585Z" fill="black"/>
<path d="M165.672 23.3617H158.895V30.1384H165.672V23.3617Z" fill="black"/>
<path d="M165.672 30.1383H158.895V36.915H165.672V30.1383Z" fill="black"/>
<path d="M165.672 36.915H158.895V43.6917H165.672V36.915Z" fill="black"/>
<path d="M165.672 43.6917H158.895V50.4683H165.672V43.6917Z" fill="black"/>
<path d="M165.672 50.4684H158.895V57.245H165.672V50.4684Z" fill="black"/>
<path d="M172.448 9.80835H165.672V16.585H172.448V9.80835Z" fill="black"/>
<path d="M172.448 50.4684H165.672V57.245H172.448V50.4684Z" fill="black"/>
<path d="M179.225 9.80835H172.448V16.585H179.225V9.80835Z" fill="black"/>
<path d="M179.225 50.4684H172.448V57.245H179.225V50.4684Z" fill="black"/>
<path d="M186.002 9.80835H179.225V16.585H186.002V9.80835Z" fill="black"/>
<path d="M186.002 50.4684H179.225V57.245H186.002V50.4684Z" fill="black"/>
<path d="M192.778 9.80835H186.002V16.585H192.778V9.80835Z" fill="black"/>
<path d="M192.778 50.4684H186.002V57.245H192.778V50.4684Z" fill="black"/>
<path d="M199.555 9.80835H192.778V16.585H199.555V9.80835Z" fill="black"/>
<path d="M199.555 50.4684H192.778V57.245H199.555V50.4684Z" fill="black"/>
<path d="M206.332 9.80835H199.555V16.585H206.332V9.80835Z" fill="black"/>
<path d="M206.332 16.585H199.555V23.3617H206.332V16.585Z" fill="black"/>
<path d="M206.332 23.3617H199.555V30.1384H206.332V23.3617Z" fill="black"/>
<path d="M206.332 30.1383H199.555V36.915H206.332V30.1383Z" fill="black"/>
<path d="M206.332 36.915H199.555V43.6917H206.332V36.915Z" fill="black"/>
<path d="M206.332 43.6917H199.555V50.4683H206.332V43.6917Z" fill="black"/>
<path d="M206.332 50.4684H199.555V57.245H206.332V50.4684Z" fill="black"/>
<path d="M179.225 23.3617H172.448V30.1384H179.225V23.3617Z" fill="black"/>
<path d="M179.225 30.1384H172.448V36.915H179.225V30.1384Z" fill="black"/>
<path d="M179.225 36.915H172.448V43.6917H179.225V36.915Z" fill="black"/>
<path d="M186.002 23.3617H179.225V30.1384H186.002V23.3617Z" fill="black"/>
<path d="M186.002 30.1384H179.225V36.915H186.002V30.1384Z" fill="black"/>
<path d="M186.002 36.915H179.225V43.6917H186.002V36.915Z" fill="black"/>
<path d="M192.778 23.3617H186.002V30.1384H192.778V23.3617Z" fill="black"/>
<path d="M192.778 30.1384H186.002V36.915H192.778V30.1384Z" fill="black"/>
<path d="M192.778 36.915H186.002V43.6917H192.778V36.915Z" fill="black"/>
<path d="M16.585 158.895H9.80835V165.672H16.585V158.895Z" fill="black"/>
<path d="M16.585 165.672H9.80835V172.448H16.585V165.672Z" fill="black"/>
<path d="M16.585 172.448H9.80835V179.225H16.585V172.448Z" fill="black"/>
<path d="M16.585 179.225H9.80835V186.002H16.585V179.225Z" fill="black"/>
<path d="M16.585 186.002H9.80835V192.778H16.585V186.002Z" fill="black"/>
<path d="M16.585 192.778H9.80835V199.555H16.585V192.778Z" fill="black"/>
<path d="M16.585 199.555H9.80835V206.332H16.585V199.555Z" fill="black"/>
<path d="M23.3616 158.895H16.585V165.672H23.3616V158.895Z" fill="black"/>
<path d="M23.3616 199.555H16.585V206.332H23.3616V199.555Z" fill="black"/>
<path d="M30.1384 158.895H23.3617V165.672H30.1384V158.895Z" fill="black"/>
<path d="M30.1384 199.555H23.3617V206.332H30.1384V199.555Z" fill="black"/>
<path d="M36.915 158.895H30.1383V165.672H36.915V158.895Z" fill="black"/>
<path d="M36.915 199.555H30.1383V206.332H36.915V199.555Z" fill="black"/>
<path d="M43.6917 158.895H36.915V165.672H43.6917V158.895Z" fill="black"/>
<path d="M43.6917 199.555H36.915V206.332H43.6917V199.555Z" fill="black"/>
<path d="M50.4683 158.895H43.6917V165.672H50.4683V158.895Z" fill="black"/>
<path d="M50.4683 199.555H43.6917V206.332H50.4683V199.555Z" fill="black"/>
<path d="M57.2451 158.895H50.4684V165.672H57.2451V158.895Z" fill="black"/>
<path d="M57.2451 165.672H50.4684V172.448H57.2451V165.672Z" fill="black"/>
<path d="M57.2451 172.448H50.4684V179.225H57.2451V172.448Z" fill="black"/>
<path d="M57.2451 179.225H50.4684V186.002H57.2451V179.225Z" fill="black"/>
<path d="M57.2451 186.002H50.4684V192.778H57.2451V186.002Z" fill="black"/>
<path d="M57.2451 192.778H50.4684V199.555H57.2451V192.778Z" fill="black"/>
<path d="M57.2451 199.555H50.4684V206.332H57.2451V199.555Z" fill="black"/>
<path d="M30.1384 172.448H23.3617V179.225H30.1384V172.448Z" fill="black"/>
<path d="M30.1384 179.225H23.3617V186.002H30.1384V179.225Z" fill="black"/>
<path d="M30.1384 186.002H23.3617V192.778H30.1384V186.002Z" fill="black"/>
<path d="M36.915 172.448H30.1383V179.225H36.915V172.448Z" fill="black"/>
<path d="M36.915 179.225H30.1383V186.002H36.915V179.225Z" fill="black"/>
<path d="M36.915 186.002H30.1383V192.778H36.915V186.002Z" fill="black"/>
<path d="M43.6917 172.448H36.915V179.225H43.6917V172.448Z" fill="black"/>
<path d="M43.6917 179.225H36.915V186.002H43.6917V179.225Z" fill="black"/>
<path d="M43.6917 186.002H36.915V192.778H43.6917V186.002Z" fill="black"/>
</svg>
